HIERARCHY
ROOT Hips
{
	OFFSET 0.00000 0.00000 0.00000
	CHANNELS 6 Xposition Yposition Zposition Zrotation Yrotation Xrotation 
	JOINT LHipJoint
	{
		OFFSET 0 0 0
		CHANNELS 3 Zrotation Yrotation Xrotation
		JOINT LeftUpLeg
		{
			OFFSET 1.38615 -1.80049 0.80104
			CHANNELS 3 Zrotation Yrotation Xrotation
			JOINT LeftLeg
			{
				OFFSET 2.50172 -6.87341 0.00000
				CHANNELS 3 Zrotation Yrotation Xrotation
				JOINT LeftFoot
				{
					OFFSET 2.67523 -7.35014 0.00000
					CHANNELS 3 Zrotation Yrotation Xrotation
					JOINT LeftToeBase
					{
						OFFSET 0.17446 -0.47932 2.13155
						CHANNELS 3 Zrotation Yrotation Xrotation
						End Site
						{
							OFFSET 0.00000 -0.00000 1.10023
						}
					}
				}
			}
		}
	}
	JOINT RHipJoint
	{
		OFFSET 0 0 0
		CHANNELS 3 Zrotation Yrotation Xrotation
		JOINT RightUpLeg
		{
			OFFSET -1.18047 -1.80049 0.80104
			CHANNELS 3 Zrotation Yrotation Xrotation
			JOINT RightLeg
			{
				OFFSET -2.59789 -7.13765 0.00000
				CHANNELS 3 Zrotation Yrotation Xrotation
				JOINT RightFoot
				{
					OFFSET -2.62125 -7.20183 0.00000
					CHANNELS 3 Zrotation Yrotation Xrotation
					JOINT RightToeBase
					{
						OFFSET -0.31287 -0.85960 2.07814
						CHANNELS 3 Zrotation Yrotation Xrotation
						End Site
						{
							OFFSET -0.00000 -0.00000 1.11766
						}
					}
				}
			}
		}
	}
	JOINT LowerBack
	{
		OFFSET 0 0 0
		CHANNELS 3 Zrotation Yrotation Xrotation
		JOINT Spine
		{
			OFFSET -0.01587 2.16157 -0.12309
			CHANNELS 3 Zrotation Yrotation Xrotation
			JOINT Spine1
			{
				OFFSET 0.04727 2.16674 -0.03569
				CHANNELS 3 Zrotation Yrotation Xrotation
				JOINT Neck
				{
					OFFSET 0 0 0
					CHANNELS 3 Zrotation Yrotation Xrotation
					JOINT Neck1
					{
						OFFSET -0.08586 1.60335 0.32783
						CHANNELS 3 Zrotation Yrotation Xrotation
						JOINT Head
						{
							OFFSET 0.07583 1.65857 -0.31618
							CHANNELS 3 Zrotation Yrotation Xrotation
							End Site
							{
								OFFSET 0.03386 1.69434 -0.14584
							}
						}
					}
				}
				JOINT LeftShoulder
				{
					OFFSET 0 0 0
					CHANNELS 3 Zrotation Yrotation Xrotation
					JOINT LeftArm
					{
						OFFSET 3.17393 1.01901 -0.52897
						CHANNELS 3 Zrotation Yrotation Xrotation
						JOINT LeftForeArm
						{
							OFFSET 5.25287 -0.00000 -0.00000
							CHANNELS 3 Zrotation Yrotation Xrotation
							JOINT LeftHand
							{
								OFFSET 3.51014 -0.00000 0.00000
								CHANNELS 3 Zrotation Yrotation Xrotation
								JOINT LeftFingerBase
								{
									OFFSET 0 0 0
									CHANNELS 3 Zrotation Yrotation Xrotation
									JOINT LeftHandIndex1
									{
										OFFSET 0.70618 -0.00000 -0.00000
										CHANNELS 3 Zrotation Yrotation Xrotation
										End Site
										{
											OFFSET 0.56934 -0.00000 -0.00000
										}
									}
								}
								JOINT LThumb
								{
									OFFSET 0 0 0
									CHANNELS 3 Zrotation Yrotation Xrotation
									End Site
									{
										OFFSET 0.57803 -0.00000 0.57803
									}
								}
							}
						}
					}
				}
				JOINT RightShoulder
				{
					OFFSET 0 0 0
					CHANNELS 3 Zrotation Yrotation Xrotation
					JOINT RightArm
					{
						OFFSET -2.99471 1.26495 -0.61125
						CHANNELS 3 Zrotation Yrotation Xrotation
						JOINT RightForeArm
						{
							OFFSET -5.28721 -0.00000 -0.00000
							CHANNELS 3 Zrotation Yrotation Xrotation
							JOINT RightHand
							{
								OFFSET -3.50544 -0.00000 0.00000
								CHANNELS 3 Zrotation Yrotation Xrotation
								JOINT RightFingerBase
								{
									OFFSET 0 0 0
									CHANNELS 3 Zrotation Yrotation Xrotation
									JOINT RightHandIndex1
									{
										OFFSET -0.88500 -0.00000 -0.00000
										CHANNELS 3 Zrotation Yrotation Xrotation
										End Site
										{
											OFFSET -0.71351 -0.00000 -0.00000
										}
									}
								}
								JOINT RThumb
								{
									OFFSET 0 0 0
									CHANNELS 3 Zrotation Yrotation Xrotation
									End Site
									{
										OFFSET -0.72440 -0.00000 0.72440
									}
								}
							}
						}
					}
				}
			}
		}
	}
}
MOTION
Frames: 16
Frame Time: .0083333
9.8527 18.565 4.2478 0 0 0 0 0 0 -21 0 0 0 0 0 0 0 0 0 0 0 0 0 0 21 0 0 0 0 0 0 0 0 0 0 0 0 0 0 0 0 0 0 0 0 0 0 -16 0 0 21 0 0 11 0 0 0 -8 0 0 0 0 0 0 0 0 0 0 0 0 0 0 0 0 0 0 0 0 8 0 0 0 0 0 0 0 0 0 0 0 0 0 0 0 0 0
9.8527 18.5650 4.2478 -179.2890 -17.0312 -168.3090 0.0000 0.0000 0.0000 -12.6167 -6.4101 -7.3616 2.5853 9.9913 28.9486 -0.9438 -16.9051 6.9031 1.2565 -7.1061 -20.0299 0.0000 0.0000 0.0000 21.9136 3.5148 -23.6630 -1.9827 -8.8299 25.2648 -0.1750 -9.0664 -15.6824 -0.2433 3.1743 -8.7644 -0.7186 2.3191 0.9945 0.0348 3.0742 1.0917 0.4205 1.5263 0.5209 -16.3995 -9.0363 -17.9034 8.1785 -10.2902 20.8008 4.0185 -5.1876 10.9880 -0.0000 0.0000 0.0000 -81.6803 4.8484 20.2286 18.5813 -28.8952 -4.8269 -0.0000 -0.0000 1.5416 7.3262 36.7828 4.4022 -7.1250 0.0000 -0.0000 -33.3384 63.9399 -16.1748 -0.0000 0.0000 0.0000 23.3475 57.9044 -19.6638 -36.9202 46.1356 -16.1825 0.0000 0.0000 1.5101 -46.7755 18.8683 -18.9875 7.1250 -0.0000 -0.0000 -11.5633 -3.9171 -10.9764
9.8774 18.5540 4.1710 -179.0300 -17.1294 -168.4830 0.0000 0.0000 0.0000 -12.0611 -6.4777 -7.8759 2.7966 10.3583 30.1450 -0.9516 -17.0356 8.0878 1.2815 -7.1739 -20.2316 0.0000 0.0000 0.0000 22.4145 3.3071 -23.3272 -1.9724 -8.8084 25.1977 -0.1970 -8.9991 -15.9095 -0.2210 3.0263 -8.3520 -0.4367 2.5856 1.0887 0.0003 3.4295 1.1231 0.2225 1.7054 0.5146 -16.3894 -9.1652 -17.4082 8.3580 -10.6152 20.6840 4.0390 -5.3287 10.9066 0.0000 -0.0000 0.0000 -81.5288 4.9163 20.4815 18.3895 -28.6530 -4.7345 -0.0000 -0.0000 1.5467 7.4195 37.3666 4.5189 -7.1250 0.0000 -0.0000 -33.9757 64.4396 -16.9113 0.0000 -0.0000 0.0000 22.4987 58.5492 -21.5727 -35.3568 45.0652 -15.0654 0.0000 0.0000 1.6797 -46.7335 19.4708 -19.5007 7.1250 -0.0000 -0.0000 -11.3961 -3.1543 -10.9745
9.9041 18.5504 4.0931 -178.5090 -17.3441 -168.8330 0.0000 0.0000 0.0000 -11.1561 -6.4674 -8.4784 3.0540 10.7819 31.5478 -0.9791 -17.3633 9.1162 1.2486 -7.0845 -19.9659 0.0000 0.0000 0.0000 23.2332 2.9489 -22.8571 -1.9481 -8.7572 25.0387 -0.2185 -8.9181 -16.1089 -0.2215 3.0293 -8.3603 0.0820 2.5001 1.3145 0.2615 3.3111 1.3025 0.1956 1.6457 0.5867 -16.8675 -9.0592 -17.7789 8.4681 -10.2915 20.8357 4.2031 -5.1976 11.0244 -0.0000 0.0000 0.0000 -81.9729 4.8734 19.6156 18.1679 -28.3716 -4.6287 -0.0000 -0.0000 1.6665 7.1153 37.3559 4.3314 -7.1250 0.0000 -0.0000 -34.2744 64.3477 -17.0044 -0.0000 0.0000 0.0000 21.6992 59.8222 -22.6401 -34.1048 44.1622 -14.1860 0.0000 0.0000 2.2877 -46.6744 18.8216 -18.8834 7.1250 -0.0000 -0.0000 -11.5144 -4.0148 -10.9066
9.9268 18.5432 4.0227 -178.2120 -17.6180 -169.0410 0.0000 0.0000 0.0000 -10.4753 -6.5909 -9.1161 3.2940 11.1565 32.8094 -0.9624 -17.4478 10.5212 0.9731 -6.2801 -17.5992 0.0000 0.0000 0.0000 23.7746 2.6280 -22.5869 -1.9483 -8.7575 25.0397 -0.2258 -8.9472 -16.2397 -0.3024 3.5355 -9.7735 0.3704 3.3647 1.3387 -0.0683 4.4783 0.8504 -0.3278 2.2359 0.1560 -15.4700 -9.1276 -14.5542 8.3065 -11.2732 19.7366 3.8531 -5.6531 10.0541 0.0000 -0.0000 0.0000 -80.7197 5.5392 22.1578 17.9754 -28.1257 -4.5377 -0.0000 -0.0000 1.5197 6.7885 37.3692 4.1325 -7.1250 0.0000 -0.0000 -34.6257 64.2690 -17.1363 0.0000 -0.0000 0.0000 22.4795 57.6460 -23.5121 -33.0455 43.3650 -13.4533 0.0000 0.0000 3.4134 -45.7087 18.1905 -17.7445 7.1250 -0.0000 -0.0000 -11.0837 -5.1748 -10.2365
9.9395 18.5301 3.9547 -178.2990 -17.8444 -168.9520 0.0000 0.0000 0.0000 -10.2737 -6.9831 -9.8412 3.5386 11.5197 34.0534 -0.8940 -17.2516 12.0235 0.7380 -5.4881 -15.3060 0.0000 0.0000 0.0000 23.8413 2.4496 -22.4968 -1.9495 -8.7601 25.0476 -0.2238 -9.0544 -16.3338 -0.3467 3.7832 -10.4674 0.9677 3.2722 3.4927 -0.5754 4.3872 -0.1519 -1.3525 2.1755 -1.9917 -15.2425 -9.0843 -15.8312 8.2613 -11.2256 21.3126 3.7693 -5.6180 10.8384 -0.0000 -0.0000 0.0000 -80.0975 7.1003 22.0506 18.1218 -28.3129 -4.6069 -0.0000 -0.0000 1.3766 6.7304 37.7697 4.1342 -7.1250 0.0000 -0.0000 -35.2045 64.5736 -17.7039 -0.0000 -0.0000 0.0000 24.5764 58.2248 -22.7384 -31.9144 42.4788 -12.6830 0.0000 0.0000 4.9862 -44.0149 17.5581 -16.2500 7.1250 -0.0000 -0.0000 -10.1971 -6.5425 -9.1180
9.9542 18.5227 3.8870 -178.5150 -18.0172 -168.7840 0.0000 0.0000 0.0000 -10.2278 -7.4870 -10.5350 3.7788 11.8601 35.2387 -0.7781 -16.8223 13.5665 0.5841 -4.8935 -13.6050 0.0000 0.0000 0.0000 23.7575 2.3178 -22.4703 -1.9563 -8.7744 25.0920 -0.2508 -9.0312 -16.6612 -0.2660 3.3176 -9.1643 0.7213 3.1821 3.6029 -0.4288 4.2597 -0.1108 -1.0657 2.1144 -2.0439 -15.8304 -9.1303 -16.0809 8.3342 -11.1015 21.3480 3.9013 -5.5885 10.9275 0.0000 0.0000 0.0000 -80.7129 7.3760 21.4858 18.2053 -28.4193 -4.6465 -0.0000 -0.0000 1.3695 6.7922 37.8719 4.1819 -7.1250 0.0000 -0.0000 -35.2765 64.6722 -17.8242 0.0000 0.0000 0.0000 23.8340 59.3232 -23.9238 -30.7846 41.5564 -11.9267 0.0000 0.0000 6.2715 -42.7424 17.3334 -15.3940 7.1250 -0.0000 -0.0000 -9.4626 -7.2136 -8.3167
9.9733 18.5204 3.8185 -178.3690 -18.2879 -168.8490 0.0000 0.0000 0.0000 -9.7587 -7.9222 -11.0835 4.0059 12.1683 36.3300 -0.7423 -17.0285 14.9031 0.6584 -5.1899 -14.4510 0.0000 0.0000 0.0000 24.0940 1.9982 -22.3893 -1.9705 -8.8044 25.1855 -0.3108 -8.7720 -17.1441 -0.1886 2.7969 -7.7138 0.9309 2.8351 3.9089 -0.2211 3.8174 -0.4414 -0.9765 1.8876 -2.5655 -16.4791 -8.6401 -14.7906 8.6204 -10.5383 20.9412 4.2438 -5.3983 10.5149 -0.0000 0.0000 0.0000 -81.3178 8.6115 20.3768 18.3951 -28.6602 -4.7372 -0.0000 -0.0000 1.2366 6.3090 37.4606 3.8470 -7.1250 0.0000 -0.0000 -35.2318 64.2113 -17.4259 -0.0000 0.0000 0.0000 24.8779 60.4854 -22.8644 -29.7111 40.6445 -11.2210 0.0000 0.0000 6.9890 -41.5738 17.8930 -15.2445 7.1250 -0.0000 -0.0000 -8.6266 -6.8554 -7.6243
9.9921 18.5191 3.7494 -177.9320 -18.5976 -169.0220 0.0000 0.0000 0.0000 -8.9481 -8.2035 -11.7277 4.2424 12.4762 37.4382 -0.7736 -17.7230 16.1164 0.6714 -5.2398 -14.5937 0.0000 0.0000 0.0000 24.7176 1.8195 -22.1355 -1.9649 -8.7925 25.1485 -0.3495 -8.6103 -17.4506 -0.1547 2.5343 -6.9847 1.9968 3.0774 4.3332 -0.6508 4.1847 -0.2562 -2.0473 2.0545 -2.4968 -15.9685 -9.0051 -15.8986 8.9099 -11.0831 21.3945 4.1456 -5.5409 10.9522 0.0000 -0.0000 0.0000 -80.4341 8.0194 20.9040 18.3792 -28.6400 -4.7296 -0.0000 -0.0000 1.1609 5.8772 37.4340 3.5804 -7.1250 0.0000 -0.0000 -35.6356 64.0724 -17.5364 0.0000 -0.0000 0.0000 24.3514 60.4185 -24.9994 -28.8842 39.9176 -10.6864 0.0000 0.0000 8.5758 -41.2584 17.4607 -14.7467 7.1250 -0.0000 -0.0000 -8.5172 -7.4804 -7.4205
10.0075 18.5053 3.6863 -177.5560 -18.8610 -169.1540 0.0000 0.0000 0.0000 -8.5200 -7.5391 -13.0928 4.4867 12.7813 38.5553 -1.2688 -20.5702 15.0176 1.6261 -8.0395 -22.8342 0.0000 0.0000 0.0000 25.2538 1.6896 -21.9376 -1.9552 -8.7722 25.0852 -0.3567 -8.6275 -17.5557 -0.1415 2.4239 -6.6788 2.7609 3.0871 4.7997 -0.8046 4.2473 -0.3643 -2.6673 2.0674 -2.8003 -16.1180 -9.0709 -16.3389 9.2562 -11.2135 21.9009 4.2655 -5.5728 11.2756 0.0000 0.0000 0.0000 -80.2553 8.2300 20.5244 18.4097 -28.6786 -4.7442 -0.0000 -0.0000 1.3353 5.8337 37.1882 3.5338 -7.1250 0.0000 -0.0000 -35.3667 63.8648 -17.2179 0.0000 0.0000 0.0000 25.1854 60.8767 -25.6419 -28.4388 39.5171 -10.4017 0.0000 0.0000 10.3256 -38.6468 16.1342 -12.5280 7.1250 -0.0000 -0.0000 -7.1174 -9.7799 -5.8516
10.0136 18.5002 3.6159 -177.2820 -19.1065 -169.4170 0.0000 0.0000 0.0000 -8.0854 -7.6047 -13.7319 4.7390 13.0837 39.6826 -1.3152 -20.9420 15.3602 1.5583 -7.8781 -22.3444 0.0000 0.0000 0.0000 25.7407 1.0554 -21.7336 -1.9526 -8.7667 25.0682 -0.3929 -8.4262 -17.7859 -0.1378 2.3929 -6.5928 3.5271 3.1105 5.4938 -1.0603 4.3450 -0.6314 -3.4204 2.0846 -3.3847 -15.8837 -8.9909 -15.9014 9.3391 -11.3076 22.0419 4.2573 -5.6147 11.2460 0.0000 -0.0000 0.0000 -79.8400 8.7030 20.4870 18.3170 -28.5611 -4.6998 -0.0000 -0.0000 1.3357 5.8724 36.8592 3.5305 -7.1250 0.0000 -0.0000 -34.9156 63.6115 -16.7661 0.0000 -0.0000 0.0000 26.8547 61.0624 -25.5188 -28.2267 39.3241 -10.2670 0.0000 0.0000 10.8906 -32.5295 13.8053 -8.6536 7.1250 -0.0000 -0.0000 -3.4535 -13.7526 -2.5382
10.0396 18.4958 3.5555 -177.4250 -19.6654 -169.0310 0.0000 0.0000 0.0000 -7.7427 -8.3901 -14.7112 4.9987 13.3823 40.8171 -1.2175 -20.7814 16.7577 1.2439 -7.0718 -19.9281 0.0000 0.0000 0.0000 25.9020 0.5728 -22.1885 -1.9670 -8.7969 25.1620 -0.4249 -8.4024 -18.1351 -0.1233 2.2640 -6.2359 3.6783 2.8516 5.4603 -1.2033 4.0062 -0.7336 -3.6306 1.9084 -3.4795 -15.6873 -8.8115 -16.1480 9.0983 -11.0135 22.2349 4.1834 -5.4877 11.2941 -0.0000 -0.0000 0.0000 -79.8670 8.7436 19.9241 18.2182 -28.4357 -4.6527 -0.0000 -0.0000 1.2283 5.9642 37.2247 3.6163 -7.1250 0.0000 -0.0000 -35.2805 63.9291 -17.2231 -0.0000 -0.0000 0.0000 27.3755 61.7200 -26.1413 -27.3685 38.5283 -9.7278 0.0000 0.0000 15.7923 -33.7859 13.2640 -8.7275 7.1250 -0.0000 -0.0000 -4.3659 -14.1780 -3.1730
10.0555 18.4917 3.4945 -177.6710 -20.1253 -168.8370 0.0000 0.0000 0.0000 -7.6460 -9.1623 -15.3989 5.2595 13.6701 41.9319 -1.0681 -20.4182 18.2130 0.8970 -6.0364 -16.8901 0.0000 0.0000 0.0000 25.8293 0.3496 -22.2694 -1.9769 -8.8177 25.2267 -0.4217 -8.6293 -18.3174 -0.1417 2.4256 -6.6834 4.0141 2.9151 5.0373 -1.6667 4.0715 -0.3302 -4.2590 1.9569 -2.7614 -15.3293 -8.9230 -16.4535 9.4450 -11.2864 22.1435 4.1979 -5.5261 11.3561 0.0000 0.0000 0.0000 -79.2360 8.1082 20.3402 18.3716 -28.6304 -4.7260 -0.0000 -0.0000 0.8259 5.9047 37.4099 3.5952 -7.1250 0.0000 -0.0000 -35.5770 64.0608 -17.4944 0.0000 0.0000 0.0000 27.1601 61.4365 -26.7996 -28.0186 39.1333 -10.1354 0.0000 0.0000 15.5439 -34.4993 12.6839 -8.5814 7.1250 -0.0000 -0.0000 -4.9223 -14.7445 -3.5207
10.0708 18.4870 3.4329 -177.6680 -20.6905 -168.8200 0.0000 0.0000 0.0000 -7.2984 -9.7737 -15.9920 5.5086 13.9346 42.9761 -1.0778 -20.7601 18.9440 0.9450 -6.1913 -17.3405 0.0000 0.0000 0.0000 25.9596 0.3667 -22.1571 -1.9954 -8.8565 25.3476 -0.3757 -9.2479 -18.4112 -0.1917 2.8197 -7.7773 4.8220 3.3392 5.0103 -2.4847 4.6521 -0.1864 -5.5865 2.2437 -2.4068 -14.3549 -9.1840 -15.9591 10.2386 -12.2160 21.8527 4.1831 -5.8035 11.2703 0.0000 0.0000 0.0000 -77.5327 7.8854 22.1718 18.8301 -29.2070 -4.9477 -0.0000 -0.0000 0.1670 6.1113 37.7394 3.7495 -7.1250 0.0000 -0.0000 -35.7947 64.3791 -17.8774 0.0000 0.0000 0.0000 28.1248 59.6406 -28.6069 -29.9689 40.8668 -11.3893 0.0000 0.0000 21.3478 -35.3785 10.2943 -7.2321 7.1250 -0.0000 -0.0000 -5.8332 -17.4613 -3.8341
10.0875 18.4837 3.3679 -177.5980 -21.2464 -168.9490 0.0000 0.0000 0.0000 -6.9064 -10.3259 -16.3583 5.7299 14.1613 43.8877 -1.1253 -21.3044 19.6374 1.1624 -6.8444 -19.2553 0.0000 0.0000 0.0000 26.2180 0.0727 -21.9553 -2.0115 -8.8900 25.4519 -0.3607 -9.5674 -18.5713 -0.1991 2.8730 -7.9254 5.4271 3.3872 5.3430 -2.9050 4.7525 -0.2495 -6.4021 2.2758 -2.5615 -13.6849 -9.1154 -15.5680 10.3853 -12.4269 21.8682 4.1055 -5.8551 11.1913 0.0000 0.0000 0.0000 -76.7404 8.3235 22.7398 19.2677 -29.7499 -5.1630 -0.0000 0.0000 -0.2145 6.3286 38.3350 3.9352 -7.1250 0.0000 -0.0000 -36.3704 64.9094 -18.6433 0.0000 0.0000 0.0000 30.6230 58.7203 -28.3352 -32.8009 43.1764 -13.2856 0.0000 0.0000 22.7909 -33.1008 8.4505 -5.4723 7.1250 -0.0000 -0.0000 -4.4502 -19.9381 -2.6739
10.0988 18.4851 3.3048 -177.5760 -21.7368 -168.9480 0.0000 0.0000 0.0000 -6.5551 -11.0569 -16.9131 5.9219 14.3522 44.6674 -0.8730 -20.6524 21.3472 0.7642 -5.5825 -15.5779 0.0000 0.0000 0.0000 26.4322 -0.3411 -21.9016 -2.0166 -8.9005 25.4846 -0.3939 -9.5356 -18.9124 -0.1436 2.4425 -6.7303 5.8090 3.1071 5.4774 -3.0123 4.4084 -0.3597 -6.7295 2.0869 -2.7663 -13.5249 -8.7748 -15.1753 10.2093 -12.0148 21.9371 4.1019 -5.6973 11.0580 0.0000 0.0000 0.0000 -76.8897 9.0176 21.9330 19.5954 -30.1517 -5.3266 -0.0000 0.0000 -0.1816 6.0690 38.2987 3.7700 -7.1250 0.0000 -0.0000 -36.5840 64.8083 -18.6822 0.0000 0.0000 0.0000 33.0377 58.5456 -26.4264 -35.7134 45.3148 -15.3183 0.0000 0.0000 20.9390 -30.8829 7.8845 -4.6902 7.1250 -0.0000 -0.0000 -2.9175 -20.8187 -1.6922
